<svg xmlns="http://www.w3.org/2000/svg" viewBox="0 0 16 16"><path fill="#fff" fill-rule="evenodd" d="M8.01.13A8.03 8.03 0 0 0 0 8.2a8.1 8.1 0 0 0 5.47 7.65c.4.08.54-.17.54-.39L6 13.96c-2.23.48-2.69-.96-2.69-.96-.36-.93-.89-1.18-.89-1.18-.73-.49.05-.49.05-.49.81.05 1.23.83 1.23.83.72 1.23 1.87.88 2.33.67.07-.52.28-.88.5-1.08-1.78-.19-3.65-.88-3.65-3.98 0-.88.32-1.6.82-2.16-.08-.2-.36-1.03.08-2.14 0 0 .68-.21 2.2.83a7.5 7.5 0 0 1 4 0c1.52-1.04 2.2-.83 2.2-.83.44 1.11.16 1.94.08 2.14.52.56.82 1.28.82 2.16 0 3.1-1.87 3.78-3.66 3.98.29.25.54.73.54 1.5l-.01 2.22c0 .21.15.47.54.39a8.1 8.1 0 0 0 5.47-7.65A8 8 0 0 0 7.97.14Z"/></svg>